<?xml version="1.0" encoding="utf-8"?>
<!-- Generator: Adobe Illustrator 19.0.0, SVG Export Plug-In . SVG Version: 6.00 Build 0)  -->
<svg version="1.1" id="Layer_1" xmlns="http://www.w3.org/2000/svg" xmlns:xlink="http://www.w3.org/1999/xlink" x="0px" y="0px"
	 viewBox="0 0 96 96" style="enable-background:new 0 0 96 96;" xml:space="preserve">
<style type="text/css">
	.st0{fill:#333333;}
</style>
<g id="XMLID_2_">
	<path id="XMLID_8_" class="st0" d="M38.8,38.8c0,1.5-0.5,2.8-1.6,3.9c-1.1,1.1-2.4,1.6-3.9,1.6s-2.8-0.5-3.9-1.6
		c-1.1-1.1-1.6-2.4-1.6-3.9c0-1.5,0.5-2.8,1.6-3.9s2.4-1.6,3.9-1.6s2.8,0.5,3.9,1.6C38.3,36,38.8,37.3,38.8,38.8z M68.2,49.8v12.8
		H27.8v-5.5L37,48l4.6,4.6l14.7-14.7L68.2,49.8z M70.9,29.7H25.1c-0.2,0-0.5,0.1-0.6,0.3c-0.2,0.2-0.3,0.4-0.3,0.6v34.8
		c0,0.2,0.1,0.5,0.3,0.6c0.2,0.2,0.4,0.3,0.6,0.3h45.8c0.2,0,0.5-0.1,0.6-0.3c0.2-0.2,0.3-0.4,0.3-0.6V30.6c0-0.2-0.1-0.5-0.3-0.6
		C71.4,29.8,71.2,29.7,70.9,29.7z M75.5,30.6v34.8c0,1.3-0.4,2.3-1.3,3.2c-0.9,0.9-2,1.3-3.2,1.3H25.1c-1.3,0-2.3-0.4-3.2-1.3
		c-0.9-0.9-1.3-2-1.3-3.2V30.6c0-1.3,0.4-2.3,1.3-3.2c0.9-0.9,2-1.3,3.2-1.3h45.8c1.3,0,2.3,0.4,3.2,1.3
		C75.1,28.2,75.5,29.3,75.5,30.6z"/>
</g>
</svg>
