<svg xmlns="http://www.w3.org/2000/svg" viewBox="0 0 15.87 15.87" height="60" width="60">
    <g style="line-height:1.25" aria-label="Abc" font-weight="400" font-size="5.69" font-family="sans-serif" stroke-width=".14">
        <path d="M7 8.8h-.59l-.4-1.15H4.2l-.4 1.15h-.56l1.51-4.14h.73zM5.84 7.17L5.1 5.14l-.73 2.03zM10.32 7.22q0 .4-.11.7-.11.32-.3.53-.2.22-.43.33-.24.1-.52.1-.27 0-.46-.06-.2-.06-.4-.17l-.02.15h-.5V4.48h.53v1.54q.22-.18.47-.3.24-.11.55-.11.55 0 .87.42.32.42.32 1.2zm-.54.02q0-.56-.19-.84-.18-.3-.59-.3-.22 0-.46.1-.23.1-.43.26v1.78q.22.1.38.14.16.04.36.04.44 0 .68-.29.25-.28.25-.9zM13.43 8.6q-.26.13-.5.2-.23.07-.5.07-.33 0-.61-.1-.29-.1-.49-.3-.2-.2-.31-.5-.11-.31-.11-.72 0-.76.42-1.2.42-.43 1.1-.43.27 0 .52.08.26.07.48.18v.58h-.03q-.24-.18-.5-.28-.25-.1-.49-.1-.44 0-.7.3-.26.3-.26.87 0 .56.25.87.25.3.71.3.16 0 .32-.05.17-.04.3-.1l.21-.13.16-.11h.03z"/>
    </g>
    <path d="M3.37 10.14h9.94" fill="none" stroke="#000" stroke-width=".22"/>
</svg>
