<svg version="1.0" xmlns="http://www.w3.org/2000/svg" width="600.000000pt" height="600.000000pt" viewBox="0 0 600.000000 600.000000" preserveAspectRatio="xMidYMid meet">
<g transform="translate(0.000000,600.000000) scale(0.100000,-0.100000)" fill="#000000" stroke="none">
<path d="M0 3000 l0 -3000 3000 0 3000 0 0 3000 0 3000 -3000 0 -3000 0 0
-3000z m3250 1667 c299 -77 552 -299 673 -587 54 -131 72 -223 72 -380 0 -157
-18 -249 -72 -380 -125 -298 -394 -524 -708 -597 -110 -25 -320 -25 -430 0
-363 84 -656 367 -753 727 -22 83 -25 115 -25 250 0 135 3 167 25 250 103 382
406 660 802 736 107 20 298 12 416 -19z m-59 -2277 c645 -66 1212 -456 1507
-1040 l63 -125 -58 -54 c-375 -353 -856 -577 -1398 -653 -116 -16 -494 -16
-610 0 -542 76 -1023 300 -1398 653 l-58 54 63 125 c261 516 725 877 1290
1004 195 44 399 56 599 36z"/>
</g>
</svg>