<svg height="72" viewBox="0 0 72 72" width="72" xmlns="http://www.w3.org/2000/svg"><g fill="none" stroke="#000" stroke-linecap="round" transform="translate(0 -1050.5197)"><g stroke-width="2"><path d="m15 1081.5197h42"/><path d="m15 1091.5197h42"/><path d="m41 1107.5197v-42"/><path d="m31 1107.5197v-42"/><path d="m10 1086.5197 8.485281-8.4853"/><path d="m27.514719 1069.005 8.485281-8.4853"/><path d="m36 1060.5197 8.485281 8.4853"/><path d="m53.514719 1078.0344 8.485281 8.4853"/><path d="m62 1086.5197-8.485281 8.4853"/><path d="m44.485281 1104.0344-8.485281 8.4853"/><path d="m36 1112.5197-8.485281-8.4853"/><path d="m18.485281 1095.005-8.485281-8.4853"/></g><path d="m49 1086.5197a13 13 0 1 0 -26 0 13 13 0 1 0 26 0z" stroke-width="3"/></g></svg>
