<?xml version="1.0" encoding="UTF-8" standalone="no"?>
<svg xmlns="http://www.w3.org/2000/svg"
   width="24"
   height="30"
   id="svg2832"
   version="1.1">
  <g id="layer1">
    <path
       id="path2856"
       d="M0.204220344411 0.0406569048913C0.427060255777 0.171263918362 2.142995787 1.29398705917 4.01740888592 2.53560053632C4.01740888592 2.53560053632 7.42542881556 4.79307513224 7.42542881556 4.79307513224C7.42542881556 4.79307513224 15.5081304942 15.1537296191 15.5081304942 15.1537296191C19.9536162505 20.8520899183 23.733848789 25.6976184043 23.908642422 25.9215677528C24.3113795376 26.437565719 23.3222606018 28.1805835148 22.1236418125 29.0670771687C21.6484862314 29.4185013488 20.6715283339 29.7721727451 19.9526242625 29.8530161829C19.9526242625 29.8530161829 18.6455314163 30.0000000331 18.6455314163 30.0000000331C18.6455314163 30.0000000331 10.7964679663 19.6842202666 10.7964679663 19.6842202666C6.47948306875 14.0105428866 2.77631500661 9.04876239222 2.56720927624 8.65804507305C2.35810020585 8.26732775387 1.86928391438 6.82901325346 1.48094565514 5.46179099596C1.09261073593 4.09456873846 0.555320632604 2.26206659391 0.286969513336 1.38956003807C-0.0685062302669 0.233794864084 -0.0909679118419 -0.132352244765 0.204220344411 0.0406569048913C0.204220344411 0.0406569048913 0.204220344411 0.0406569048913 0.204220344411 0.0406569048913M2.42896555871 6.07667310476C3.04150981038 8.07563490718 3.88222463312 9.43916483596 4.50218374473 9.43916483596C4.93357495199 9.43916483596 4.83792993882 8.29958425572 4.36691599125 7.82750644017C4.10695166976 7.56695530887 4.31847223964 7.59807494469 4.92747272266 7.90997728674C6.06395698974 8.49203280344 6.58285356438 8.30504651579 6.34420863523 7.39945483855C6.21016333163 6.89077855472 6.30647301018 6.80150639888 6.81611771003 6.96202326363C7.28772952243 7.11056491864 7.45509159534 7.00499215901 7.45132738492 6.56133267955C7.44381232417 5.67648300689 7.16985662957 5.38972761094 4.84906558884 3.83748123688C3.14853095551 2.70009146043 2.64979812387 2.50515705406 2.26054469724 2.82573670004C1.6424493207 3.3347875862 1.65337120899 3.54562817346 2.42896555871 6.07667310476C2.42896555871 6.07667310476 2.42896555871 6.07667310476 2.42896555871 6.07667310476M9.13019863652 16.2387174289C11.7040768832 19.5895289389 13.9281975224 22.4036037927 14.0726837504 22.4922196819C14.2171733184 22.580835571 14.5346796251 22.5311117691 14.7782544341 22.3817282366C15.3877292009 22.0079313286 5.96788779314 9.77061265596 5.07068306034 9.77061265596C4.72953604259 9.77061265596 4.45041666625 9.85515173693 4.45041666625 9.95847396586C4.45041666625 10.0617995093 6.55631704986 12.8879092334 9.13019863652 16.2387174289C9.13019863652 16.2387174289 9.13019863652 16.2387174289 9.13019863652 16.2387174289M10.5049537497 14.8314728471C15.7624902504 21.6798377606 16.0147057093 21.9601564398 16.4923863507 21.4861297111C17.0002975766 20.9821036402 7.30380507238 8.39656257337 6.61086637082 8.66043149735C6.3411257903 8.76315049125 6.12043016625 8.90863619736 6.12043016625 8.98373564441C6.12043016625 9.05883509147 8.0934642758 11.6903153412 10.5049537497 14.8314728471C10.5049537497 14.8314728471 10.5049537497 14.8314728471 10.5049537497 14.8314728471M12.6070865829 14.493744091C15.1320835344 17.7295034337 17.3197310788 20.376942896 17.4685226016 20.376942896C18.4213989044 20.376942896 17.4965120278 18.8407518543 13.2194938934 13.3194841253C9.2561276745 8.20311968218 8.30986462513 7.16023237447 7.9212792039 7.48026181707C7.63971826782 7.71215265537 7.56317152904 8.01979920742 7.73219359537 8.24021200772C7.88838995803 8.44389332206 10.0820929714 11.2579847482 12.6070865829 14.493744091C12.6070865829 14.493744091 12.6070865829 14.493744091 12.6070865829 14.493744091M17.8625589469 27.532937789C18.7499239601 28.6992562649 19.4224016563 29.2919048539 19.7268885377 29.1759577775C19.9888468553 29.0762019272 20.3359558212 28.994586216 20.4982410531 28.994586216C20.9651868478 28.994586216 23.155523114 26.978070937 23.1456666943 26.5572548413C23.1407568546 26.3482670473 22.4827815557 25.3180277884 21.6834629942 24.2678287418C21.6834629942 24.2678287418 20.230157126 22.3583810521 20.230157126 22.3583810521C20.230157126 22.3583810521 19.7033747476 23.1562024707 19.7033747476 23.1562024707C19.4136441055 23.5950029251 18.5725017259 24.2305309186 17.8341687174 24.5684817449C17.0958357089 24.9064325711 16.4878706342 25.3012001826 16.4831311359 25.4457445769C16.4783882976 25.5902889712 17.0991323155 26.5295259167 17.8625589469 27.532937789C17.8625589469 27.532937789 17.8625589469 27.532937789 17.8625589469 27.532937789"
       style="opacity:0.5;fill:#000000;fill-opacity:1" />
  </g>
</svg>
