<?xml version="1.0" encoding="iso-8859-1"?>
<svg version="1.1" id="Layer_1" xmlns="http://www.w3.org/2000/svg" xmlns:xlink="http://www.w3.org/1999/xlink" x="0px" y="0px"
	 viewBox="0 0 512 512" style="enable-background:new 0 0 512 512;" xml:space="preserve">
	<path d="M253.771,125.367v-11.372h14.557V83.578h-14.557V72.206h14.557V41.789h-14.557V0H94.763v41.789H80.207v30.417h14.557
		v11.372H80.207v30.417h14.557v11.372H25.348v339.471C25.348,490.843,46.504,512,72.51,512h203.515
		c26.005,0,47.162-21.156,47.162-47.162V125.367H253.771z M125.18,30.417h98.173v11.372H125.18V30.417z M125.18,72.206h98.173
		v11.372H125.18V72.206z M125.18,113.995h98.173v11.372H125.18V113.995z M292.77,464.838c0,9.233-7.511,16.745-16.745,16.745H72.51
		c-9.233,0-16.745-7.511-16.745-16.745V155.785h38.998h159.008h38.999V464.838z"/>
	<path d="M438.604,238.351l0.937-143.134h22.886V0h-75.991v95.216h22.687l-0.937,143.134h-45.978v211.427
		c0,34.31,27.913,62.222,62.222,62.222c34.31,0,62.221-27.913,62.221-62.222V238.351H438.604z M416.853,30.417h15.157v34.382
		h-15.157V30.417z M456.235,449.778c0,17.538-14.267,31.805-31.804,31.805c-17.538,0-31.805-14.268-31.805-31.805v-181.01h63.609
		V449.778z"/>
</svg>
