<?xml version="1.0" encoding="UTF-8" standalone="no"?>
<svg xmlns="http://www.w3.org/2000/svg"
   height="512pt"
   viewBox="0 0 511 512"
   width="512pt"
   version="1.1">
  <path d="m 345.08008,125.98828 c -24.89726,0.73484 -44.1674,29.55872 -34.22461,52.79688 7.70594,20.99702
        35.18297,32.36562 54.90234,20.76562 18.88488,-9.8306 27.24873,-35.94244 15.37362,-54.18016 -7.34367,-12.48294
        -21.53357,-20.46516 -36.05135,-19.38234 z m 3.13476,17.89844 c 16.22278,-0.20548 26.79771,21.93191 15.85743,34.20898
        -9.47233,13.12663 -33.60569,8.7097 -36.94922,-7.47265 -3.64415,-12.97473 7.35532,-27.64996 21.09179,-26.73633 z" />
  <path d="M 342.4375,6.0566406 C 290.19086,7.4079629 242.35927,38.176593 212.42969,79.859375 172.0509,133.32565 151.6073,198.75524
        139.05581,263.62731 c -11.0666,60.66577 -15.57746,123.65855 -2.59982,184.26864 3.18909,13.80335 7.59242,27.16891
        13.48737,40.06694 -46.23636,0.71324 -92.60616,-1.19943 -138.757813,0.96875 -7.1679152,3.47864 -5.410118,16.97256
        3.162109,16.73047 13.023959,1.13909 26.085166,-0.50886 39.160156,0.26172 39.107849,-0.35237 78.454368,1.21505
        117.408208,-0.91797 11.62403,-6.4845 20.6696,-16.67658 31.82443,-23.97279 C 288.28553,414.05988 375.11489,348.62649
        458.40039,278.83594 504.83041,234.27343 520.0166,160.66869 494.06641,101.66406 480.21113,69.208258 454.04807,42.773832
        422.67383,26.75 398.07551,13.570622 370.36066,5.6740618 342.4375,6.0566406 Z M 348.85352,24 c 44.63846,2.483085
        88.26507,24.942344 115.23828,60.738281 36.71253,50.940449 31.28826,126.334659 -10.41407,172.794919 -15.994,18.11801
        -36.4534,31.41775 -54.72089,47.04015 -55.05329,43.79021 -110.39742,87.24271 -166.20498,130.06884 -3.72222,2.23748
        -9.07682,8.72329 -13.16983,3.76406 -3.75188,-5.31875 2.30416,-10.35216 4.49646,-14.7625 13.42866,-22.34815 29.28176,-43.43994
        40.47424,-67.01094 4.64981,-19.32452 0.35659,-39.20475 1.94336,-58.80078 0,-25.10872 0,-50.21745 0,-75.32617
        27.26176,39.01383 84.277,53.47018 126.29297,30.65234 39.00097,-19.83374 62.13191,-67.20229 51.33064,-110.09176
        -8.90693,-39.8821 -44.74436,-72.933336 -85.57282,-76.496128 -38.41872,-4.477176 -78.69119,15.465072 -97.16116,49.663138
        -11.52851,19.93348 -14.48995,43.20794 -12.88963,65.78999 0,43.29752 0,86.59505 0,129.89258 -20.87317,-14.37821
        -53.45386,-1.35833 -58.89453,23.32226 -6.06475,21.81707 10.85837,47.22737 33.78516,48.49414 4.83775,2.49928
        -0.36425,8.00621 -2.14063,10.73438 -18.24321,29.05876 -36.4886,58.11617 -54.73047,87.17578 C 143.26543,428.02403
        143.95411,367.86646 150.1924,310.83561 158.88876,236.25068 178.63809,160.96371 221.23047,98.173828 245.82544,62.859165
        282.05659,32.802931 325.59375,25.908203 333.27466,24.615349 341.06518,23.988733 348.85352,24 Z m -0.17188,59.941406
        c 42.61748,-0.335194 81.14427,38.442654 79.95508,81.179684 0.21285,38.53195 -30.27574,75.18815 -68.87305,80.06055
        -35.24954,5.4699 -73.28159,-14.60202 -86.72461,-48.05273 -13.79996,-31.86015 -5.05109,-72.49697 22.5327,-94.23297
        14.7417,-12.309901 33.87846,-19.259655 53.10988,-18.954534 z M 228.21875,323.88281 c 16.19696,-0.19704 26.78048,21.87394
        15.89648,34.16602 -9.43643,13.15366 -33.57823,8.79654 -36.97265,-7.36914 -3.69471,-12.97578 7.32341,-27.72066 21.07617,-26.79688 z" />
</svg>