<svg height="512pt" viewBox="0 0 511 512" width="512pt" xmlns="http://www.w3.org/2000/svg">
    <path d="m347.492188 210.015625c24.8125 0 45-20.1875 45-45s-20.1875-45-45-45-45 20.1875-45 45 20.1875 45 45
    45zm0-60c8.273437 0 15 6.726563 15 15 0 8.269531-6.726563 15-15 15-8.269532 0-15-6.730469-15-15 0-8.273437 6.730468-15 15-15zm0 0"/>
    <path d="m447.046875 34.761719c-33.335937-24.011719-73.394531-34.761719-98.304687-34.761719-73.636719 0-134.464844
    46.46875-175.90625 134.382812-31.519532 66.867188-50.335938 156.820313-50.335938 240.628907 0 34.859375 5.851562
    77.503906 18.386719 106.996093h-125.386719c-8.285156 0-15 6.714844-15 15 0 8.285157 6.714844 14.988282 15
    14.988282h151.925781c.019531 0 .035157.003906.054688.003906 3.445312 0 6.738281-1.210938 9.191406-3.125
    10.261719-7.9375 251.601563-194.671875 281.71875-221.949219 34.378906-31.136719 54.097656-75.570312
    54.097656-121.910156 0-68.695313-35.585937-108.746094-65.441406-130.253906zm-8.792969 229.929687c-19.527344
    17.6875-136.554687 109.089844-212.992187 168.515625l40.257812-64.121093c.007813-.015626.015625-.027344.023438-.042969
    4.546875-7.191407 6.953125-15.496094 6.953125-24.03125v-106.59375c19.070312 19.480469 45.644531 31.59375 74.996094
    31.59375 57.898437 0 105-47.101563 105-104.996094 0-57.898437-47.101563-105-105-105-57.894532 0-104.996094
    47.101563-104.996094 105v137.578125c-4.695313-1.667969-9.742188-2.582031-15-2.582031-24.8125 0-45 20.1875-45 45 0
    21.429687 15.0625 39.398437 35.152344 43.902343l-49.914063 79.503907c-8.40625-20.992188-15.238281-55.421875-15.238281-93.40625
    0-79.601563 17.746094-164.777344 47.472656-227.839844 25.199219-53.453125 71.464844-117.171875 148.773438-117.171875
    19.441406 0 53.011718 9.105469 80.769531 29.105469 35.152343 25.320312 52.980469 60.953125 52.980469 105.910156 0
    37.882813-16.125 74.214844-44.238282 99.675781zm-210.757812 95.320313c-8.269532 0-15-6.730469-15-15s6.730468-15
    15-15c8.269531 0 15 6.730469 15 15 0 8.316406-6.746094 15-15 15zm45-194.996094c0-41.355469 33.644531-75 74.996094-75
    41.355468 0 75 33.644531 75 75 0 41.351563-33.644532 74.996094-75 74.996094-41.351563 0-74.996094-33.644531-74.996094-74.996094zm0 0"/>
</svg>