<?xml version="1.0" encoding="UTF-8" standalone="no"?>
<svg xmlns="http://www.w3.org/2000/svg" version="1.1" x="0px" y="0px" viewBox="0 0 512 512" style="enable-background:new 0 0 512 512;">
	<path d="m 100.76367,41.789062 c -0.32301,6.791517 -8.676,7.017847 -13.622085,5.795571 -2.546951,-0.40692
			-0.07076,4.253566 -0.864241,6.200523 0.322244,4.132609 -0.788102,8.756323 0.203125,12.53711 5.311344,-1.166656
			14.109981,-0.84218 14.375001,6.396484 0.19432,6.098269 1.47934,15.703559 -6.556642,17.394531 -2.711323,0.766861
			-5.831157,-1.648914 -8.160156,-0.785156 0.182017,6.08727 0.294665,13.168585 -0.03906,18.871095 5.635363,-1.47621
			13.863687,-0.53042 15.183591,6.37695 -0.0327,3.286 0.15573,6.40669 -0.0918,9.70508 -1.09011,6.58132 -8.662821,8.73969
			-14.362969,7.2776 -18.489628,-0.49827 -36.986183,-0.0405 -55.478832,-0.17799 0.250273,113.24245 -0.525971,226.50395
			0.41211,339.73437 2.913239,21.72403 25.173061,37.853 46.765616,34.87479 68.228255,-0.32404 136.486875,0.72673
			204.695325,-0.56619 21.41392,-3.3677 36.90164,-25.57351 33.96484,-46.61133 0,-109.14844 0,-218.29687 0,-327.44531
			-23.6901,0 -47.38021,0 -71.07031,0 5.08931,-6.70941 -2.69559,-16.86869 4.86914,-22.41992 3.49765,-2.45311
			8.72875,0.65703 11.71875,-1.34571 -0.76973,-6.03761 -0.21882,-12.131408 -0.37696,-18.193357 -5.33651,1.164124
			-14.37765,1.072704 -14.57031,-6.302734 -0.30409,-6.017898 -1.58644,-15.220806 6.03125,-17.326172 2.84102,-1.060068
			6.1359,1.530576 8.60742,0.675781 -0.18201,-6.08727 -0.29466,-13.168586 0.0391,-18.871094 -5.58535,1.438877
			-13.74268,0.575212 -15.16407,-6.230468 0.11096,-7.515863 0.87174,-15.180999 0.51056,-22.81248 C 247.76662,14.36074
			247.7307,10.180313 247.76172,6 c -48.99935,0 -97.9987,0 -146.99805,0 0,11.929688 0,23.859375 0,35.789062 z m
			24.41602,-17.371093 c 35.27734,0 70.55469,0 105.83203,0 -5.07632,6.733704 2.63191,16.749089 -4.79492,22.4375
			-9.73323,2.650279 -19.94128,-0.1125 -29.86328,0.933593 -26.21289,0 -52.42579,0 -78.63868,0 4.64436,-6.894539
			-2.79455,-17.135446 4.8711,-22.65039 0.8005,-0.416054 1.6849,-0.710354 2.59375,-0.720703 z m 0,41.787109 c
			35.27604,0 70.55208,0 105.82812,0 -5.05772,6.739826 2.62212,16.73808 -4.78711,22.4375 -9.73374,2.654454
			-19.94403,-0.111536 -29.86718,0.935547 -26.21289,0 -52.42579,0 -78.63868,0 4.64434,-6.895217 -2.79444,-17.136767
			4.8711,-22.652344 0.8005,-0.416054 1.6849,-0.710354 2.59375,-0.720703 z m 0,41.789062 c 35.27604,0 70.55208,0
			105.82812,0 -5.05772,6.73983 2.62212,16.73808 -4.78711,22.4375 -9.73374,2.65445 -19.94403,-0.11154 -29.86718,0.93555
			-26.21289,0 -52.42579,0 -78.63868,0 4.64434,-6.89522 -2.79444,-17.13677 4.8711,-22.65235 0.80003,-0.41718
			1.68544,-0.7071 2.59375,-0.7207 z m -73.414065,41.79102 c 82.335285,0 164.670575,0 247.005855,0 -0.22195,106.41378
			0.44501,212.85072 -0.3496,319.25 -2.10752,13.33106 -17.11199,21.09199 -29.69922,18.54178 -67.16878,-0.3476
			-134.38403,0.74511 -201.523441,-0.57889 -12.802543,-2.71153 -19.783085,-17.23301 -17.433594,-29.44336 0,-102.58985
			0,-205.17969 0,-307.76953 h 1 z" />
	<path d="m 392.43555,89.216797 c 7.57617,0 15.15234,0 22.72851,0 -0.34096,51.710933 -0.67827,103.421883 -1.01953,155.132813
			-15.30859,0 -30.61719,0 -45.92578,0 0.39476,71.57202 -0.8816,143.1804 0.6875,214.72851 4.41665,30.6783
			37.64851,53.37426 67.90625,45.67969 26.21053,-5.90511 46.40184,-31.94655 43.66861,-58.87887 0.41091,-67.17512
			0.0168,-134.35166 0.16928,-201.52738 -16.0293,0 -32.05859,0 -48.08789,0 0.34096,-51.71158 0.67827,-103.42318
			1.01953,-155.134763 7.61524,0 15.23047,0 22.8457,0 0,-27.738932 0,-55.477865 0,-83.216797 -21.33072,0 -42.66145,0
			-63.99218,0 0,27.738932 0,55.477865 0,83.216797 z m 36.72656,-64.978516 c 4.67986,-0.567803 10.95203,3.098207
			8.84766,8.490235 0,12.690104 0,25.380208 0,38.070312 -9.05209,0 -18.10417,0 -27.15625,0 0,-15.479167 0,-30.958333
			0,-46.4375 6.13174,0.270978 12.22003,0.104054 18.30859,-0.123047 z M 388.62695,262.76758 c 24.53841,0 49.07683,0
			73.61524,0 -0.36935,64.60621 0.70713,129.24844 -0.5586,193.83203 -3.48924,22.94954 -31.22967,38.11674 -52.3125,27.94727
			-15.93991,-6.82379 -25.1706,-25.02944 -22.74414,-41.97266 0,-59.93555 0,-119.87109 0,-179.80664 h 1 z" />
</svg>