<svg viewBox="0 0 72 72" xmlns="http://www.w3.org/2000/svg">
    <g fill="none" stroke="#000" stroke-miterlimit="10">
        <path stroke-linecap="round" stroke-linejoin="round" stroke-width="2" d="M21.38 50.39l-3.61-28.38M54.26 21.98l-3.75 28.4M40.58 22.09l8.17 10.02M30.42 22.13l17.15 20.64M22.35 24.25l21.87 26.17M23.9 37l12.03 13.63M25.32 49.4l1.36 1.35M23.23 31.23l8.58-9.13M24.61 41.88l18.24-19.75M26.89 50.63l22.49-23.92M36.57 50.63l11.55-11.95M44.22 50.75l2.12-1.79M14.91 12.03h42.05v5.95H14.91z"/>
        <path d="M42.85 54.4h7.27"/>
        <path stroke-linecap="round" stroke-linejoin="round" stroke-width="2" d="M50.12 54.4l-.7 5.57H22.43l-.68-5.57h28.37"/>
    </g>
</svg>
