<?xml version="1.0" encoding="UTF-8" standalone="no"?>
<svg
   version="1.1"
   width="64"
   height="64"
   viewBox="0 0 64 64"
   xml:space="preserve"
   id="svg69"
   sodipodi:docname="clear2.svg"
   inkscape:version="1.1.2 (b8e25be833, 2022-02-05)"
   xmlns:inkscape="http://www.inkscape.org/namespaces/inkscape"
   xmlns:sodipodi="http://sodipodi.sourceforge.net/DTD/sodipodi-0.dtd"
   xmlns="http://www.w3.org/2000/svg"
   xmlns:svg="http://www.w3.org/2000/svg"><sodipodi:namedview
   id="namedview71"
   pagecolor="#ffffff"
   bordercolor="#666666"
   borderopacity="1.0"
   inkscape:pageshadow="2"
   inkscape:pageopacity="0.0"
   inkscape:pagecheckerboard="0"
   showgrid="false"
   inkscape:zoom="10.230951"
   inkscape:cx="10.996045"
   inkscape:cy="31.961837"
   inkscape:window-width="1920"
   inkscape:window-height="1177"
   inkscape:window-x="-8"
   inkscape:window-y="-8"
   inkscape:window-maximized="1"
   inkscape:current-layer="svg69" />
<desc
   id="desc41">Created with Fabric.js 4.2.0</desc>
<defs
   id="defs43">
</defs>

<g
   transform="matrix(Infinity NaN NaN Infinity 0 0)"
   id="60da4f58-e22c-4837-890b-2e4c3a2b052e">
</g>
<g
   transform="matrix(0.61908833,0,0,1.4555314,31.681676,31.706764)"
   id="f8365d3c-60b8-46fd-98d8-73a3955df726">

</g>
<g
   transform="matrix(0.29 0 0 0.29 187 192)"
   id="e778291f-9bd4-49bb-8440-15a680c665f2">
<path
   style="stroke: rgb(0,0,0); stroke-width: 0; stroke-dasharray: none; stroke-linecap: butt; stroke-dashoffset: 0; stroke-linejoin: miter; stroke-miterlimit: 4; fill: rgb(101,101,101); fill-rule: nonzero; opacity: 1;"
   vector-effect="non-scaling-stroke"
   transform=" translate(-50, -50)"
   d="M 94.75 50 C 94.75 56.213 89.514 61.25 83.054 61.25 L 16.946 61.25 C 10.486 61.25 5.25 56.213 5.25 50 L 5.25 50 C 5.25 43.787 10.486 38.75 16.945999999999998 38.75 L 83.053 38.75 C 89.514 38.75 94.75 43.787 94.75 50 L 94.75 50 z"
   stroke-linecap="round"
   id="path52" />
</g>
<g
   transform="matrix(0.32 0 0 0.32 174 78)"
   id="eb17dd99-00f6-43de-b487-bafd46c06a5a">
<path
   style="stroke: rgb(0,0,0); stroke-width: 0; stroke-dasharray: none; stroke-linecap: butt; stroke-dashoffset: 0; stroke-linejoin: miter; stroke-miterlimit: 4; fill: rgb(101,101,101); fill-rule: nonzero; opacity: 1;"
   vector-effect="non-scaling-stroke"
   transform=" translate(-50, -50)"
   d="M 90.375 67.209 L 9.625 67.209 L 9.625 32.792 L 90.375 32.792 L 90.375 67.209 z M 11.625 65.209 L 88.375 65.209 L 88.375 34.792 L 11.625 34.792 L 11.625 65.209 z"
   stroke-linecap="round"
   id="path55" />
</g>


<g
   transform="matrix(0.36 0 0 0.36 32 32)"
   id="20072329-6654-4e31-85d8-fac154bd40d8">

</g>
<rect
   style="fill:none;fill-rule:evenodd;stroke:#000000;stroke-opacity:1;stroke-width:2;stroke-miterlimit:4;stroke-dasharray:none;stroke-linejoin:round;paint-order:markers fill stroke"
   id="rect483"
   width="56.69072"
   height="54.540382"
   x="3.8119624"
   y="4.3984179" /><path
   style="fill:none;stroke:#000000;stroke-width:1px;stroke-linecap:butt;stroke-linejoin:miter;stroke-opacity:1"
   d="m 16.323018,15.834305 32.743778,31.668609 v 0 0"
   id="path4100" /><path
   style="fill:none;stroke:#000000;stroke-width:1px;stroke-linecap:butt;stroke-linejoin:miter;stroke-opacity:1"
   d="M 49.164539,15.541077 C 16.616246,47.307429 16.616246,47.307429 16.616246,47.307429"
   id="path4102" /></svg>
