<?xml version="1.0" encoding="utf-8"?>
<!-- Generator: Adobe Illustrator 26.3.1, SVG Export Plug-In . SVG Version: 6.00 Build 0)  -->
<svg version="1.1" id="Layer_1" xmlns="http://www.w3.org/2000/svg" xmlns:xlink="http://www.w3.org/1999/xlink" x="0px" y="0px"
	 viewBox="0 0 512 512" style="enable-background:new 0 0 512 512;" xml:space="preserve">
<style type="text/css">
	.st0{fill:#1D1D1B;}
	.st1{fill:#FFFFFF;}
</style>
<g>
	<path d="M1009.3,409.8c2.7-1.2,4.4-3.9,4.5-6.8c0.1-2.9-1.5-5.6-4.1-7c-32.5-17.2-45-40.1-38.3-70.1c9.2-3.9,14.1-14.3,10.8-24
		l-9.7-28.7c-1.7-4.9-5.1-8.8-9.7-11.1c-4.6-2.3-9.9-2.6-14.8-1l-46.6,15.7c-4,1.4-6.2,5.7-4.8,9.8c1.4,4,5.7,6.2,9.8,4.8l46.6-15.7
		c2.1-0.7,4.3,0.4,5,2.5l9.7,28.7c0.7,2.1-0.4,4.3-2.5,5l-282,95.3c-1,0.3-2.1,0.3-3-0.2c-0.9-0.5-1.6-1.3-2-2.3l-9.7-28.7
		c-0.7-2.1,0.4-4.3,2.5-5L875.2,302c4-1.4,6.2-5.7,4.8-9.8c-1.4-4-5.7-6.2-9.8-4.8l-30.6,10.4L746.9,23.4
		c-2.9-8.7-9.1-15.8-17.4-19.8S712-1.1,703.2,1.8c-18,6.1-27.7,25.7-21.6,43.7l13.8,40.9c1.4,4,5.7,6.2,9.8,4.8
		c4-1.4,6.2-5.7,4.8-9.8l-13.8-40.9c-3.4-10,2-20.8,11.9-24.1c4.8-1.6,10-1.3,14.5,1c4.6,2.3,8,6.2,9.6,11l92.7,274.4L789,314.9
		l-69.5-205.6c-1.4-4-5.7-6.2-9.8-4.8c-4,1.4-6.2,5.7-4.8,9.8l69.5,205.6L666,356.5c-10.1,3.4-15.5,14.4-12.1,24.5l9.7,28.7
		c2.7,8,10.3,13.1,18.3,13.1c1.6,0,3.2-0.2,4.8-0.6c23.5,19.7,27.5,45.6,12.1,78.9c-1.2,2.7-0.8,5.8,1,8.1c1.5,1.8,3.7,2.9,6,2.9
		c0.6,0,1.1-0.1,1.7-0.2c60.4-13.4,120.3-30.7,178.2-51.4c1.1,0.3,2.2,0.6,3.4,0.8c4.6,11.8,13.2,21.4,24.6,27.1
		c7.2,3.6,15,5.4,22.8,5.4c5.4,0,10.8-0.9,16-2.6c19.9-6.6,33.5-24.6,34.8-45c8.1-3.5,13.8-11.6,13.8-20.9c0-3.8-0.9-7.4-2.6-10.5
		C1002,413.1,1005.6,411.5,1009.3,409.8z M989.6,401.9c-1.4,0.6-2.7,1.2-4.1,1.8c-2.3-0.8-4.7-1.2-7.2-1.2c-3,0-6,0.6-8.8,1.8
		c-3.5-3-7.3-5.4-11.3-7.3c-16.3-16.8-23.3-36.3-21.2-59.4l17.8-6c-1.7,14.3,0.3,27.4,6.2,39.2C966.8,382.5,976.4,392.9,989.6,401.9
		z M836.8,460.7c-4.6-28.1-12.7-55.3-24.2-81.1l32.8-11.1c4.3,18,10.1,35.7,17.3,52.6c-1.3,5.7-1.1,11.9,0.8,17.9
		c1.3,4,3.4,7.6,6,10.7C858.8,453.5,847.8,457.2,836.8,460.7z M760.5,397.2c15.2,23.2,21.7,49.7,19.3,78.8c0,0.6-0.1,1.2-0.3,1.9
		c-8.7,2.4-17.4,4.7-26.1,7c7-30.6,1.4-57.3-16.6-79.7L760.5,397.2z M775.6,392.2l22.5-7.6c11.3,25.2,19.9,53.6,24.4,80.8
		c-8.9,2.8-17.9,5.5-26.9,8.1C797.2,443.7,790.5,416.4,775.6,392.2z M872.6,404.2c-5-13.2-9.2-26.8-12.4-40.7l22.5-7.6
		c1.4,13.8,4.7,27,10,39.4c-2.6,0.2-5.3,0.7-7.8,1.6C880.1,398.5,876,401,872.6,404.2z M911.3,398.8c-7.9-14.7-12.5-30.8-13.7-47.9
		l23.6-8c-0.5,18,4,34.5,13.4,49.2c-4.8,0.2-9.6,1-14.2,2.5C917.3,395.7,914.2,397.1,911.3,398.8z M722.2,451.5
		c-2.5-13-8.8-24.7-18.9-34.9l17.8-6c19.7,21.4,24.7,47.2,15.3,78.7c-6,1.5-12.1,2.9-18.1,4.3C723.4,478.4,724.7,464.3,722.2,451.5z
		 M978.9,432.6c-4.2,0.3-7.3,4-7,8.1c1,16-9,30.8-24.2,35.8c-9,3-18.6,2.3-27-2c-8.5-4.2-14.8-11.5-17.7-20.5
		c-0.2-0.6-0.4-1.3-0.6-1.9c-0.9-3.3-3.9-5.6-7.3-5.7c-7.6-0.1-14.3-5.1-16.7-12.3c-3.1-9.4,2-19.5,11.4-22.6
		c1.8-0.6,3.7-0.9,5.6-0.9c3.9,0,7.7,1.3,10.9,3.7c2.7,2.1,6.5,2.1,9.3,0.1c3-2.2,6.4-4,9.9-5.2c13.3-4.4,28-0.5,37.4,9.8
		c2.8,3.1,7.6,3.4,10.7,0.6c0.9-0.8,2.6-1.8,4.8-1.8c4.1,0,7.3,3.3,7.3,7.3C985.6,429.1,982.6,432.3,978.9,432.6z"/>
	<path d="M1109.1,384.2c-11.2,0-21.4,6.1-26.9,15.6c-24.6,1.4-44.2,21.9-44.2,46.8c0,25.9,21,46.9,46.9,46.9
		c25.9,0,46.9-21,46.9-46.9c0-3.2-0.3-6.4-1-9.5c5.8-5.8,9.2-13.7,9.2-22C1140,398.1,1126.1,384.2,1109.1,384.2z M1117.8,428
		c-2.8,1.9-4,5.5-3,8.8c1,3.2,1.6,6.5,1.6,9.8c0,17.4-14.1,31.5-31.5,31.5s-31.5-14.1-31.5-31.5c0-17.4,14.1-31.5,31.5-31.5
		c0.6,0,1.2,0,1.8,0.1c3.4,0.2,6.6-1.9,7.7-5.1c2.2-6.2,8.1-10.4,14.7-10.4c8.6,0,15.6,7,15.6,15.6
		C1124.6,420.3,1122.1,425.1,1117.8,428z"/>
	<path d="M1087.5,331.3c0-17.5-14.3-31.8-31.8-31.8s-31.8,14.3-31.8,31.8c0,17.5,14.3,31.8,31.8,31.8S1087.5,348.9,1087.5,331.3z
		 M1039.3,331.3c0-9,7.3-16.4,16.4-16.4s16.4,7.3,16.4,16.4c0,9-7.3,16.4-16.4,16.4S1039.3,340.4,1039.3,331.3z"/>
	<path d="M1115.6,310.7c-4.9,4.7-1.4,13.2,5.3,13.2c3.8,0,7.1-2.9,7.6-6.6c0.4-3-1-6.1-3.7-7.7
		C1121.9,307.9,1118,308.4,1115.6,310.7z"/>
	<path d="M1005.7,463.7c-5,4.6-1.6,13.4,5.2,13.4c4,0,7.5-3.3,7.7-7.3C1018.9,463,1010.6,459.2,1005.7,463.7z"/>
	<path d="M1028.2,264.6c1.3-6.8-6.8-11.7-12.3-7.5c-5.7,4.4-2.4,13.8,4.7,13.8C1024.3,270.8,1027.5,268.1,1028.2,264.6z"/>
	<path d="M1065.1,239.3c0,0.7-0.1,1.4-0.1,2.1c0,21.5,17.5,39,39,39c21.5,0,39-17.5,39-39c0-10.2-4-19.9-11-27.2
		c1-3,1.5-6.1,1.5-9.3c0-16.4-13.4-29.8-29.8-29.8c-11.2,0-21.2,6.3-26.3,15.9c-13.8,0.6-24.9,12.1-24.9,26
		C1052.7,226.3,1057.6,234.6,1065.1,239.3z M1078.7,206.4c0.7,0,1.5,0.1,2.2,0.2c4,0.8,8-1.6,9-5.5c1.7-6.2,7.4-10.6,13.8-10.6
		c7.9,0,14.4,6.4,14.4,14.4c0,2.6-0.7,5.1-2,7.3c-2,3.4-1.2,7.8,2,10.1c6.1,4.5,9.6,11.4,9.6,19c0,13-10.6,23.6-23.6,23.6
		c-13,0-23.6-10.6-23.6-23.6c0-1.7,0.2-3.4,0.5-5c0.9-3.9-1.5-7.9-5.3-9c-4.5-1.3-7.6-5.5-7.6-10.2
		C1068.1,211.2,1072.9,206.4,1078.7,206.4z"/>
</g>
<g>
	<path class="st0" d="M77,426.3c-6.5,0-12.5-4.3-14.3-10.8l-12-42.4c-2.2-7.9,2.4-16.1,10.3-18.4l278.7-79
		c7.9-2.2,16.1,2.4,18.4,10.3l12,42.4c2.2,7.9-2.4,16.1-10.3,18.4L81,425.8C79.7,426.2,78.3,426.3,77,426.3z M343.6,285.6
		c-0.4,0-0.8,0.1-1.2,0.2l-278.7,79c-2.4,0.7-3.8,3.2-3.1,5.6l12,42.4c0.7,2.4,3.2,3.8,5.6,3.1l278.7-79c2.4-0.7,3.8-3.2,3.1-5.6
		l-12-42.4C347.4,286.9,345.6,285.6,343.6,285.6z"/>
	<g>
		<path class="st0" d="M118,498c-10.3,0-19.9-6.8-22.8-17.3l-18.1-64.1l45.6-12.9l18.1,64.1c1.7,6.1,1,12.5-2.1,18
			c-3.1,5.5-8.1,9.5-14.2,11.3C122.4,497.7,120.2,498,118,498z M89.9,423.8l15.3,54.1c1,3.4,3.2,6.2,6.3,8s6.7,2.2,10.1,1.2
			c3.4-1,6.2-3.2,8-6.3c1.7-3.1,2.2-6.7,1.2-10.1l-15.3-54.1L89.9,423.8z"/>
		<path class="st0" d="M165.2,484.6c-4,0-8-1-11.6-3c-5.5-3.1-9.5-8.1-11.3-14.2l-18.1-64.1l45.6-12.9l18.1,64.1
			c1.7,6.1,1,12.5-2.1,18c-3.1,5.5-8.1,9.5-14.2,11.3C169.5,484.3,167.3,484.6,165.2,484.6z M137,410.5l15.3,54.1
			c2,7.1,9.4,11.2,16.5,9.2c7.1-2,11.2-9.4,9.2-16.5l-15.3-54.1L137,410.5z"/>
		<path class="st0" d="M212.3,471.3c-10.3,0-19.9-6.8-22.8-17.3v0L171.3,390l45.6-12.9l18.1,64.1c1.7,6.1,1,12.5-2.1,18
			c-3.1,5.5-8.1,9.5-14.2,11.3C216.6,471,214.4,471.3,212.3,471.3z M199.4,451.2c2,7.1,9.4,11.2,16.5,9.2c7.1-2,11.2-9.4,9.2-16.5
			l-15.3-54.1l-25.7,7.3L199.4,451.2L199.4,451.2z"/>
		<path class="st0" d="M353.6,431.2c-10.3,0-19.9-6.8-22.8-17.3l-18.1-64.1l45.6-12.9l18.1,64.1c1.7,6.1,1,12.5-2.1,18
			c-3.1,5.5-8.1,9.5-14.2,11.3C357.9,430.9,355.7,431.2,353.6,431.2z M325.4,357.1l15.3,54.1c1,3.4,3.2,6.2,6.3,8
			c3.1,1.7,6.7,2.2,10.1,1.2c3.4-1,6.2-3.2,8-6.3c1.7-3.1,2.2-6.7,1.2-10.1l-15.3-54.1L325.4,357.1z"/>
		<path class="st0" d="M306.5,444.6c-4,0-8-1-11.6-3c-5.5-3.1-9.5-8.1-11.3-14.2l-18.1-64.1l45.6-12.9l18.1,64.1
			c1.7,6.1,1,12.5-2.1,18c-3.1,5.5-8.1,9.5-14.2,11.3C310.8,444.3,308.7,444.6,306.5,444.6z M278.3,370.4l15.3,54.1
			c1,3.4,3.2,6.2,6.3,8c3.1,1.7,6.7,2.2,10.1,1.2c7.1-2,11.2-9.4,9.2-16.5L304,363.1L278.3,370.4z"/>
		<path class="st0" d="M259.4,457.9c-10.3,0-19.9-6.8-22.8-17.3l-18.1-64.1l45.6-12.9l18.1,64.1c1.7,6.1,1,12.5-2.1,18
			s-8.1,9.5-14.2,11.3C263.7,457.6,261.5,457.9,259.4,457.9z M231.2,383.8l15.3,54.1c1,3.4,3.2,6.2,6.3,8c3.1,1.7,6.7,2.2,10.1,1.2
			c3.4-1,6.2-3.2,8-6.3c1.7-3.1,2.2-6.7,1.2-10.1l-15.3-54.1L231.2,383.8z"/>
	</g>
	<g>
		<path class="st0" d="M180.4,331.7L99.1,44.6c-3.5-12.4,3.7-25.3,16.1-28.9c6-1.7,12.3-1,17.8,2.1c5.5,3.1,9.4,8,11.1,14L225.4,319
			L180.4,331.7z M121.6,25.3c-1.2,0-2.4,0.2-3.5,0.5c-6.9,2-10.9,9.1-9,16l78.5,277.1l25-7.1L134.1,34.7c-0.9-3.3-3.1-6.1-6.2-7.8
			C125.9,25.8,123.8,25.3,121.6,25.3z"/>
	</g>
</g>
<g>
	<path class="st1" d="M370.9,478l-18.6-9.4c-2-1-4.4-1-6.4,0.1l-18.2,10c-5,2.8-11.1-1.4-10.2-7.1l3.2-20.6c0.3-2.3-0.4-4.5-2.1-6.1
		l-15.2-14.3c-4.2-3.9-2-11,3.6-11.9l20.5-3.4c2.3-0.4,4.2-1.8,5.1-3.9l8.9-18.8c2.5-5.2,9.8-5.3,12.4-0.2l9.5,18.5
		c1,2,3,3.4,5.3,3.7l20.6,2.6c5.7,0.7,8.1,7.7,4.1,11.8l-14.6,14.8c-1.6,1.6-2.3,3.9-1.9,6.2l3.9,20.4
		C381.9,476.2,376,480.6,370.9,478z"/>
	<path class="st0" d="M324.3,483.6c-2.2,0-4.4-0.7-6.3-2c-3.4-2.4-5.2-6.5-4.5-10.6l3.2-20.6c0.1-1-0.2-1.9-0.9-2.6l-15.2-14.3
		c-3.1-2.9-4.2-7.1-3-11.2c1.2-4,4.6-6.9,8.7-7.6l20.5-3.4c1-0.2,1.8-0.8,2.2-1.6l8.9-18.8c1.8-3.8,5.5-6.2,9.7-6.3
		c4.2-0.1,8,2.2,9.9,5.9l9.5,18.5c0.4,0.9,1.3,1.4,2.2,1.6l20.6,2.6c4.2,0.5,7.6,3.3,9,7.3c1.4,4,0.4,8.3-2.6,11.3l-14.6,14.8
		c-0.7,0.7-1,1.7-0.8,2.6l3.9,20.4c0.8,4.1-0.8,8.2-4.2,10.8s-7.7,2.9-11.5,1l-18.6-9.4c-0.9-0.4-1.9-0.4-2.7,0l-18.2,10
		C327.9,483.2,326.1,483.6,324.3,483.6z M347.8,392.8C347.8,392.8,347.7,392.8,347.8,392.8c-0.6,0-1.9,0.2-2.6,1.7l-8.9,18.8
		c-1.5,3.3-4.6,5.5-8.1,6.1l-20.5,3.4c-1.6,0.3-2.2,1.5-2.3,2c-0.2,0.5-0.4,1.9,0.8,3l15.2,14.3c2.6,2.5,3.9,6.1,3.3,9.6l-3.2,20.6
		c-0.2,1.6,0.8,2.5,1.2,2.8c0.4,0.3,1.6,1,3.1,0.2l18.2-10c3.2-1.7,7-1.8,10.2-0.2l18.6,9.4c1.5,0.7,2.6,0.1,3.1-0.3
		c0.4-0.3,1.4-1.3,1.1-2.9l-3.9-20.4c-0.7-3.5,0.4-7.2,3-9.7l14.6-14.8c1.2-1.2,0.9-2.5,0.7-3c-0.2-0.5-0.8-1.7-2.4-2l-20.6-2.6
		c-3.6-0.5-6.7-2.6-8.3-5.8l-9.5-18.5C349.6,393,348.4,392.8,347.8,392.8z"/>
</g>
<path class="st0" d="M414.3,388.2c-2.5,0-4.9-0.7-7-2.2c-3.8-2.7-5.8-7.2-5.1-11.9l3.7-24.4c0.2-1.4-0.3-2.8-1.3-3.7l-18-16.9
	c-3.4-3.2-4.7-8-3.3-12.5c1.4-4.5,5.1-7.7,9.7-8.5l24.3-4c1.4-0.2,2.5-1.1,3.1-2.4l10.5-22.3c2-4.2,6.1-6.9,10.8-7
	c4.7-0.1,8.9,2.5,11.1,6.6l11.3,21.9c0.6,1.2,1.8,2.1,3.2,2.2l24.5,3.1c4.6,0.6,8.5,3.7,10,8.1c1.5,4.4,0.4,9.2-2.9,12.6l-17.4,17.5
	c-1,1-1.4,2.4-1.1,3.8l4.6,24.2c0.9,4.6-0.9,9.2-4.6,12c-3.7,2.8-8.7,3.3-12.8,1.2l-22-11.1c-1.2-0.6-2.7-0.6-3.9,0.1l-21.6,11.9
	C418.3,387.7,416.3,388.2,414.3,388.2z M442.2,280.5C442.1,280.5,442.1,280.5,442.2,280.5c-1.7,0-3.1,0.9-3.8,2.4l-10.5,22.3
	c-1.7,3.6-5.1,6.2-9.1,6.8l-24.3,4c-1.6,0.3-2.9,1.4-3.4,2.9c-0.5,1.6-0.1,3.2,1.1,4.3l18,16.9c2.9,2.8,4.3,6.8,3.7,10.7l-3.7,24.4
	c-0.2,1.6,0.4,3.2,1.8,4.1c1.3,0.9,3,1,4.4,0.2l21.6-11.9c3.5-1.9,7.8-2,11.4-0.2l22,11.1c1.5,0.7,3.1,0.6,4.4-0.4
	c1.3-1,1.9-2.5,1.6-4.2l-4.6-24.2c-0.7-4,0.5-8,3.3-10.9l17.4-17.5c1.2-1.2,1.5-2.8,1-4.3c-0.5-1.6-1.8-2.6-3.5-2.8l-24.5-3.1
	c-4-0.5-7.5-2.9-9.3-6.5l-11.3-21.9C445.2,281.4,443.8,280.5,442.2,280.5z"/>
<path class="st0" d="M372.2,251.4c-1.6,0-3.1-0.5-4.5-1.4c-2.5-1.7-3.7-4.6-3.3-7.6l2-12.9c0-0.3-0.1-0.6-0.3-0.8l-9.5-9
	c-2.2-2.1-3-5.1-2.1-8c0.9-2.9,3.3-5,6.2-5.5l12.9-2.1c0.3,0,0.5-0.2,0.6-0.5l5.6-11.8c1.3-2.7,4-4.4,7-4.5c3-0.1,5.7,1.6,7.1,4.3
	l6,11.6c0.1,0.2,0.4,0.4,0.7,0.5l13,1.6c3,0.4,5.5,2.4,6.4,5.2c1,2.8,0.3,5.9-1.8,8.1l-9.2,9.3c-0.2,0.2-0.3,0.5-0.2,0.8l2.4,12.8
	c0.6,3-0.6,5.9-3,7.7s-5.6,2.1-8.3,0.7l-11.7-5.9c-0.3-0.1-0.5-0.1-0.8,0l-11.5,6.3C374.8,251.1,373.5,251.4,372.2,251.4z
	 M387,194.3C387,194.3,387,194.3,387,194.3c-0.3,0-0.6,0.1-0.8,0.5l-5.6,11.8c-1.1,2.3-3.3,4-5.8,4.4l-12.9,2.1
	c-0.4,0.1-0.6,0.4-0.7,0.6c-0.1,0.2-0.1,0.6,0.2,0.9l9.5,9c1.9,1.8,2.8,4.4,2.4,6.9l-2,12.9c-0.1,0.4,0.2,0.7,0.4,0.8
	c0.2,0.1,0.5,0.3,0.9,0l11.5-6.3c2.3-1.2,5-1.3,7.3-0.1l11.7,5.9c0.4,0.2,0.7,0.1,0.9-0.1c0.2-0.1,0.4-0.4,0.3-0.8l-2.4-12.8
	c-0.5-2.5,0.3-5.2,2.1-7l9.2-9.3c0.3-0.3,0.3-0.6,0.2-0.9c-0.1-0.2-0.3-0.5-0.7-0.6l-13-1.6c-2.6-0.3-4.8-1.9-6-4.2l-6-11.6
	C387.5,194.4,387.2,194.3,387,194.3z"/>
<path class="st0" d="M447.4,439.4l-4.9-2.5c-0.5-0.3-1.2-0.3-1.7,0l-4.8,2.6c-1.3,0.7-2.9-0.4-2.7-1.9l0.8-5.4
	c0.1-0.6-0.1-1.2-0.6-1.6l-4-3.7c-1.1-1-0.5-2.9,1-3.1l5.4-0.9c0.6-0.1,1.1-0.5,1.4-1l2.3-4.9c0.6-1.4,2.6-1.4,3.3-0.1l2.5,4.9
	c0.3,0.5,0.8,0.9,1.4,1l5.4,0.7c1.5,0.2,2.1,2,1.1,3.1l-3.8,3.9c-0.4,0.4-0.6,1-0.5,1.6l1,5.4C450.3,438.9,448.7,440.1,447.4,439.4z
	"/>
<path class="st0" d="M316.4,237.2l-4.9-2.5c-0.5-0.3-1.2-0.3-1.7,0l-4.8,2.6c-1.3,0.7-2.9-0.4-2.7-1.9l0.8-5.4
	c0.1-0.6-0.1-1.2-0.6-1.6l-4-3.7c-1.1-1-0.5-2.9,1-3.1l5.4-0.9c0.6-0.1,1.1-0.5,1.4-1l2.3-4.9c0.6-1.4,2.6-1.4,3.3-0.1l2.5,4.9
	c0.3,0.5,0.8,0.9,1.4,1l5.4,0.7c1.5,0.2,2.1,2,1.1,3.1l-3.8,3.9c-0.4,0.4-0.6,1-0.5,1.6l1,5.4C319.3,236.7,317.7,237.9,316.4,237.2z
	"/>
<path class="st0" d="M472.7,251.8l-4.9-2.5c-0.5-0.3-1.2-0.3-1.7,0l-4.8,2.6c-1.3,0.7-2.9-0.4-2.7-1.9l0.8-5.4
	c0.1-0.6-0.1-1.2-0.6-1.6l-4-3.7c-1.1-1-0.5-2.9,1-3.1l5.4-0.9c0.6-0.1,1.1-0.5,1.4-1l2.3-4.9c0.6-1.4,2.6-1.4,3.3-0.1l2.5,4.9
	c0.3,0.5,0.8,0.9,1.4,1l5.4,0.7c1.5,0.2,2.1,2,1.1,3.1l-3.8,3.9c-0.4,0.4-0.6,1-0.5,1.6l1,5.4C475.5,251.3,474,252.5,472.7,251.8z"
	/>
</svg>
