<svg viewBox="0 0 70 70" xmlns="http://www.w3.org/2000/svg">
    <g fill="none" stroke="#000" stroke-linecap="round" stroke-linejoin="round" stroke-width="2">
        <path d="M18.66 19.24a3.53 3.53 0 10-5.57 4.25l11.54 15.1 2.69 3.39-7.9-10.33a3.53 3.53 0 10-5.56 4.24l7.9 10.34 6.26 7.9c5.47 6.27 14.52 5.93 20.79.46a19.62 19.62 0 006.51-12.31c.39-4.23.81-15.3.81-15.3-.18-2.6-3.13-4.52-3.51-3.18l-4.9 9.76-3.36-4.23 3.36 4.23-3.36-4.23-13.47-17.2a3.53 3.53 0 10-5.56 4.24l4.25 5.57L36 30.42 22.58 12.74a3.53 3.53 0 10-5.56 4.25L31.69 36"/>
        <path stroke-miterlimit="10" d="M11.67 42.87c0 2.57 1.75 4.64 3.9 4.64M7.06 42.44c0 5.6 3.81 10.12 8.52 10.12M45.26 21.24c0-2.57-1.75-4.65-3.9-4.65M49.87 21.67c0-5.6-3.8-10.12-8.51-10.12"/>
    </g>
</svg>
