<svg transform="rotate(225)" version="1.0" xmlns="http://www.w3.org/2000/svg"
     width="1280.000000pt" height="1280.000000pt" viewBox="0 0 1280.000000 1280.000000"
     preserveAspectRatio="xMidYMid meet">
    <g transform="translate(0.000000,1280.000000) scale(0.100000,-0.100000)"
       fill="#000000" stroke="none">
        <path d="M3140 12772 c-37 -18 -61 -39 -75 -62 -20 -35 -20 -52 -23 -2162 -1
-1171 -3 -2129 -5 -2130 -1 -2 -583 -5 -1294 -8 -1285 -5 -1292 -5 -1319 -26
-69 -51 -92 -130 -58 -197 11 -20 1324 -1558 2918 -3418 2166 -2526 2907
-3385 2932 -3395 45 -19 96 -18 139 3 26 12 229 247 768 887 402 479 1687
2004 2855 3390 1554 1845 2125 2529 2132 2555 19 71 -15 148 -80 182 -33 18
-88 19 -1311 19 -1091 0 -1278 2 -1288 14 -9 11 -12 518 -10 2135 l1 2120 -22
36 c-13 21 -41 45 -71 60 l-48 25 -3043 0 -3043 -1 -55 -27z"/>
    </g>
</svg>
